<svg width="1600" height="1600" viewBox="0 0 1200 1200" xmlns="http://www.w3.org/2000/svg"><path d="M909.98 250.21C732.77 104.8 470.77 114.93 305.32 280.565c-176.21 176.42-176.21 462.45 0 638.86 165.45 165.64 427.45 175.77 604.66 30.359 1.547-1.27 2.36-2.894 2.394-5.152.036-2.477-.949-5.461-3.418-7.938l-275.95-276.27c-33.34-33.379-33.34-87.488 0-120.87l275.95-276.27c2.47-2.476 3.454-5.46 3.418-7.933-.035-2.262-.847-3.887-2.394-5.157zm-656.39-21.441c192.31-192.53 496.77-204.26 702.78-35.215 39.449 32.371 36.898 88.938 4.324 121.55l-275.94 276.26c-4.765 4.773-4.765 12.5 0 17.273l275.94 276.26c32.574 32.613 35.125 89.176-4.324 121.55-206.02 169.04-510.47 157.32-702.78-35.215-204.79-205.03-204.79-537.44 0-742.46z" fill-rule="evenodd"/><path d="M551.21 221.51c-60.617 0-109.76 49.199-109.76 109.88 0 60.688 49.141 109.89 109.76 109.89 60.617 0 109.75-49.199 109.75-109.89 0-60.684-49.137-109.88-109.75-109.88z" fill-rule="evenodd"/><path d="M871.754 498.315h294.945v220.02H871.754z"/></svg>